<?xml version="1.0" encoding="UTF-8" standalone="no"?>
<!DOCTYPE svg PUBLIC "-//W3C//DTD SVG 1.1//EN" "http://www.w3.org/Graphics/SVG/1.1/DTD/svg11.dtd">
<svg width="100%" height="100%" viewBox="0 0 233 238" version="1.1" xmlns="http://www.w3.org/2000/svg" xmlns:xlink="http://www.w3.org/1999/xlink" xml:space="preserve" xmlns:serif="http://www.serif.com/" style="fill-rule:evenodd;clip-rule:evenodd;stroke-linecap:round;stroke-linejoin:round;stroke-miterlimit:1.5;">
    <g>
        <path d="M123.611,32.445L123.689,31.388L171.531,31.044L168.457,60.446L122.273,50.72L122.316,49.98C116.858,48.781 112.995,44.806 113.532,39.932C114.046,35.265 118.334,32.713 123.611,32.445ZM123.448,34.444L122.43,48.281C118.568,47.246 115.945,43.765 116.334,40.241C116.705,36.872 119.692,34.808 123.448,34.444ZM142.453,38.976C145.172,39.276 147.154,41.559 146.877,44.072C146.6,46.585 144.168,48.382 141.45,48.083C138.731,47.783 136.749,45.5 137.026,42.987C137.303,40.474 139.735,38.677 142.453,38.976Z" style="fill:#0075a1;"/>
        <path d="M121.091,54.616L121.302,53.578L168.669,60.664L162.006,88.101L117.436,72.572L117.573,71.844C112.312,69.959 108.987,65.524 110.14,60.759C111.245,56.195 115.823,54.21 121.091,54.616ZM120.674,56.578L117.902,70.173C114.204,68.654 112.046,64.868 112.88,61.422C113.677,58.128 116.903,56.461 120.674,56.578ZM138.948,63.494C141.606,64.138 143.282,66.655 142.687,69.112C142.092,71.569 139.451,73.042 136.793,72.398C134.134,71.755 132.459,69.238 133.054,66.78C133.648,64.323 136.29,62.851 138.948,63.494Z" style="fill:#0075a1;"/>
        <path d="M115.521,75.051L115.887,74.056L161.64,88.213L150.91,114.33L109.196,92.249L109.442,91.549C104.526,88.892 101.908,84.006 103.768,79.469C105.549,75.124 110.374,73.853 115.521,75.051ZM114.813,76.927L110.02,89.947C106.593,87.888 105.031,83.819 106.376,80.538C107.662,77.402 111.102,76.242 114.813,76.927ZM131.832,86.523C134.363,87.561 135.639,90.302 134.68,92.641C133.721,94.98 130.888,96.037 128.357,95C125.827,93.962 124.551,91.221 125.51,88.882C126.469,86.543 129.302,85.486 131.832,86.523Z" style="fill:#0075a1;"/>
        <path d="M107.349,94.684L107.858,93.754L151.009,114.534L136.528,138.773L98.546,110.755L98.893,110.1C94.424,106.743 92.56,101.523 95.071,97.312C97.476,93.279 102.436,92.737 107.349,94.684ZM106.371,96.434L99.701,108.601C96.618,106.056 95.676,101.801 97.492,98.756C99.228,95.845 102.802,95.207 106.371,96.434ZM121.781,108.446C124.13,109.847 124.985,112.748 123.69,114.919C122.395,117.09 119.437,117.716 117.088,116.315C114.739,114.914 113.883,112.013 115.178,109.842C116.473,107.671 119.432,107.045 121.781,108.446Z" style="fill:#0075a1;"/>
    </g>
    <g>
        <path d="M123.611,32.445L123.689,31.388L171.531,31.044L168.457,60.446L122.273,50.72L122.316,49.98C116.858,48.781 112.995,44.806 113.532,39.932C114.046,35.265 118.334,32.713 123.611,32.445ZM123.448,34.444L122.43,48.281C118.568,47.246 115.945,43.765 116.334,40.241C116.705,36.872 119.692,34.808 123.448,34.444ZM142.453,38.976C145.172,39.276 147.154,41.559 146.877,44.072C146.6,46.585 144.168,48.382 141.45,48.083C138.731,47.783 136.749,45.5 137.026,42.987C137.303,40.474 139.735,38.677 142.453,38.976Z" style="fill:#0075a1;"/>
        <path d="M121.091,54.616L121.302,53.578L168.669,60.664L162.006,88.101L117.436,72.572L117.573,71.844C112.312,69.959 108.987,65.524 110.14,60.759C111.245,56.195 115.823,54.21 121.091,54.616ZM120.674,56.578L117.902,70.173C114.204,68.654 112.046,64.868 112.88,61.422C113.677,58.128 116.903,56.461 120.674,56.578ZM138.948,63.494C141.606,64.138 143.282,66.655 142.687,69.112C142.092,71.569 139.451,73.042 136.793,72.398C134.134,71.755 132.459,69.238 133.054,66.78C133.648,64.323 136.29,62.851 138.948,63.494Z" style="fill:#0075a1;"/>
        <path d="M115.521,75.051L115.887,74.056L161.64,88.213L150.91,114.33L109.196,92.249L109.442,91.549C104.526,88.892 101.908,84.006 103.768,79.469C105.549,75.124 110.374,73.853 115.521,75.051ZM114.813,76.927L110.02,89.947C106.593,87.888 105.031,83.819 106.376,80.538C107.662,77.402 111.102,76.242 114.813,76.927ZM131.832,86.523C134.363,87.561 135.639,90.302 134.68,92.641C133.721,94.98 130.888,96.037 128.357,95C125.827,93.962 124.551,91.221 125.51,88.882C126.469,86.543 129.302,85.486 131.832,86.523Z" style="fill:#0075a1;"/>
        <path d="M107.349,94.684L107.858,93.754L151.009,114.534L136.528,138.773L98.546,110.755L98.893,110.1C94.424,106.743 92.56,101.523 95.071,97.312C97.476,93.279 102.436,92.737 107.349,94.684ZM106.371,96.434L99.701,108.601C96.618,106.056 95.676,101.801 97.492,98.756C99.228,95.845 102.802,95.207 106.371,96.434ZM121.781,108.446C124.13,109.847 124.985,112.748 123.69,114.919C122.395,117.09 119.437,117.716 117.088,116.315C114.739,114.914 113.883,112.013 115.178,109.842C116.473,107.671 119.432,107.045 121.781,108.446Z" style="fill:#0075a1;"/>
    </g>
    <path d="M104.472,57.916C104.472,66.005 103.302,73.464 100.961,80.292C98.62,87.121 95.235,93.002 90.808,97.938C86.38,102.874 80.993,106.714 74.647,109.46C68.302,112.207 61.096,113.58 53.03,113.58L41.861,113.58L41.861,164.902L5.31,164.902L5.31,5.257L55.06,5.257C63.013,5.257 70.05,6.185 76.17,8.041C82.29,9.896 87.451,12.92 91.654,17.114C95.856,21.307 99.043,26.744 101.215,33.423C103.386,40.103 104.472,48.267 104.472,57.916ZM65.806,59.585C65.806,55.8 65.354,52.646 64.452,50.123C63.549,47.599 62.322,45.577 60.771,44.055C59.22,42.534 57.415,41.439 55.356,40.771C53.297,40.103 51.112,39.769 48.799,39.769L41.861,39.769L41.861,79.179L50.068,79.179C53.001,79.179 55.469,78.697 57.472,77.732C59.474,76.767 61.096,75.413 62.337,73.668C63.577,71.924 64.466,69.846 65.002,67.434C65.538,65.022 65.806,62.406 65.806,59.585Z" style="fill:#00134e;fill-rule:nonzero;"/>
    <path d="M104.472,57.916C104.472,66.005 103.302,73.464 100.961,80.292C98.62,87.121 95.235,93.002 90.808,97.938C86.38,102.874 80.993,106.714 74.647,109.46C68.302,112.207 61.096,113.58 53.03,113.58L41.861,113.58L41.861,164.902L5.31,164.902L5.31,5.257L55.06,5.257C63.013,5.257 70.05,6.185 76.17,8.041C82.29,9.896 87.451,12.92 91.654,17.114C95.856,21.307 99.043,26.744 101.215,33.423C103.386,40.103 104.472,48.267 104.472,57.916ZM65.806,59.585C65.806,55.8 65.354,52.646 64.452,50.123C63.549,47.599 62.322,45.577 60.771,44.055C59.22,42.534 57.415,41.439 55.356,40.771C53.297,40.103 51.112,39.769 48.799,39.769L41.861,39.769L41.861,79.179L50.068,79.179C53.001,79.179 55.469,78.697 57.472,77.732C59.474,76.767 61.096,75.413 62.337,73.668C63.577,71.924 64.466,69.846 65.002,67.434C65.538,65.022 65.806,62.406 65.806,59.585Z" style="fill:#00134e;fill-rule:nonzero;"/>
    <g>
        <g>
            <path d="M156.912,234.526L156.912,121.095L227.549,121.095L227.549,147.831L191.083,147.831L191.083,164.363L225.334,164.363L225.334,191.099L191.083,191.099L191.083,207.79L230.16,207.79L230.16,234.526L156.912,234.526Z" style="fill:#00134e;fill-rule:nonzero;"/>
            <path d="M156.912,234.526L156.912,121.095L227.549,121.095L227.549,147.831L191.083,147.831L191.083,164.363L225.334,164.363L225.334,191.099L191.083,191.099L191.083,207.79L230.16,207.79L230.16,234.526L156.912,234.526Z" style="fill:#00134e;fill-rule:nonzero;"/>
        </g>
        <g>
            <circle cx="219.187" cy="131.084" r="6.222" style="fill:#f4ff2c;stroke:#000;stroke-width:0.4px;"/>
            <circle cx="195.538" cy="130.594" r="6.222" style="fill:#f4ff2c;stroke:#000;stroke-width:0.4px;"/>
            <circle cx="171.888" cy="130.594" r="6.222" style="fill:#f4ff2c;stroke:#000;stroke-width:0.4px;"/>
            <circle cx="171.888" cy="153.225" r="6.222" style="fill:#f4ff2c;stroke:#000;stroke-width:0.4px;"/>
            <circle cx="171.888" cy="175.856" r="6.222" style="fill:#f4ff2c;stroke:#000;stroke-width:0.4px;"/>
            <circle cx="191.946" cy="175.856" r="6.222" style="fill:#f4ff2c;stroke:#000;stroke-width:0.4px;"/>
            <circle cx="212.005" cy="175.856" r="6.222" style="fill:#f4ff2c;stroke:#000;stroke-width:0.4px;"/>
            <circle cx="171.888" cy="198.487" r="6.222" style="fill:#f4ff2c;stroke:#000;stroke-width:0.4px;"/>
            <circle cx="171.888" cy="221.118" r="6.222" style="fill:#f4ff2c;stroke:#000;stroke-width:0.4px;"/>
            <circle cx="195.538" cy="221.118" r="6.222" style="fill:#f4ff2c;stroke:#000;stroke-width:0.4px;"/>
            <circle cx="219.187" cy="221.118" r="6.222" style="fill:#f4ff2c;stroke:#000;stroke-width:0.4px;"/>
        </g>
    </g>
</svg>
